<mxfile host="app.diagrams.net" modified="2023-04-04T07:52:57.850Z" agent="Mozilla/5.0 (Macintosh; Intel Mac OS X 10_15_7) AppleWebKit/537.36 (KHTML, like Gecko) Chrome/113.0.0.0 Safari/537.36" etag="N8ot-AEcKWvu8jS6e-t1" version="21.1.2" type="github">
  <diagram name="第 1 页" id="_mY1bGgirzv-qWG_QNsI">
    <mxGraphModel dx="954" dy="616" grid="1" gridSize="10" guides="1" tooltips="1" connect="1" arrows="1" fold="1" page="1" pageScale="1" pageWidth="827" pageHeight="1169" math="0" shadow="0">
      <root>
        <mxCell id="0" />
        <mxCell id="1" parent="0" />
        <mxCell id="wZ6RQqIl-5jhBRy3Lcrf-1" style="edgeStyle=orthogonalEdgeStyle;rounded=0;orthogonalLoop=1;jettySize=auto;html=1;entryX=0;entryY=0.395;entryDx=0;entryDy=0;entryPerimeter=0;" edge="1" parent="1" source="wZ6RQqIl-5jhBRy3Lcrf-3" target="wZ6RQqIl-5jhBRy3Lcrf-7">
          <mxGeometry relative="1" as="geometry" />
        </mxCell>
        <mxCell id="wZ6RQqIl-5jhBRy3Lcrf-2" value="访问网站" style="edgeLabel;html=1;align=center;verticalAlign=middle;resizable=0;points=[];" vertex="1" connectable="0" parent="wZ6RQqIl-5jhBRy3Lcrf-1">
          <mxGeometry x="-0.1229" y="2" relative="1" as="geometry">
            <mxPoint y="1" as="offset" />
          </mxGeometry>
        </mxCell>
        <mxCell id="wZ6RQqIl-5jhBRy3Lcrf-3" value="" style="shape=actor;whiteSpace=wrap;html=1;" vertex="1" parent="1">
          <mxGeometry x="160" y="230" width="40" height="60" as="geometry" />
        </mxCell>
        <mxCell id="wZ6RQqIl-5jhBRy3Lcrf-4" value="客户端" style="text;html=1;align=center;verticalAlign=middle;resizable=0;points=[];autosize=1;strokeColor=none;fillColor=none;" vertex="1" parent="1">
          <mxGeometry x="150" y="290" width="60" height="30" as="geometry" />
        </mxCell>
        <mxCell id="wZ6RQqIl-5jhBRy3Lcrf-5" style="edgeStyle=orthogonalEdgeStyle;rounded=0;orthogonalLoop=1;jettySize=auto;html=1;entryX=0;entryY=0;entryDx=50;entryDy=0;entryPerimeter=0;dashed=1;dashPattern=8 8;" edge="1" parent="1" source="wZ6RQqIl-5jhBRy3Lcrf-7" target="wZ6RQqIl-5jhBRy3Lcrf-14">
          <mxGeometry relative="1" as="geometry" />
        </mxCell>
        <mxCell id="wZ6RQqIl-5jhBRy3Lcrf-6" value="过滤后的请求" style="edgeLabel;html=1;align=center;verticalAlign=middle;resizable=0;points=[];" vertex="1" connectable="0" parent="wZ6RQqIl-5jhBRy3Lcrf-5">
          <mxGeometry x="-0.2929" y="-1" relative="1" as="geometry">
            <mxPoint y="1" as="offset" />
          </mxGeometry>
        </mxCell>
        <mxCell id="wZ6RQqIl-5jhBRy3Lcrf-7" value="&lt;font style=&quot;font-size: 19px;&quot;&gt;&lt;b&gt;nginx&lt;/b&gt;&lt;/font&gt;" style="rounded=0;whiteSpace=wrap;html=1;" vertex="1" parent="1">
          <mxGeometry x="350" y="220" width="170" height="100" as="geometry" />
        </mxCell>
        <mxCell id="wZ6RQqIl-5jhBRy3Lcrf-24" style="edgeStyle=orthogonalEdgeStyle;rounded=0;orthogonalLoop=1;jettySize=auto;html=1;entryX=0;entryY=0;entryDx=0;entryDy=27.5;entryPerimeter=0;" edge="1" parent="1" source="wZ6RQqIl-5jhBRy3Lcrf-8" target="wZ6RQqIl-5jhBRy3Lcrf-11">
          <mxGeometry relative="1" as="geometry">
            <Array as="points">
              <mxPoint x="320" y="300" />
              <mxPoint x="320" y="438" />
            </Array>
          </mxGeometry>
        </mxCell>
        <mxCell id="wZ6RQqIl-5jhBRy3Lcrf-27" value="增删黑名单" style="edgeLabel;html=1;align=center;verticalAlign=middle;resizable=0;points=[];" vertex="1" connectable="0" parent="wZ6RQqIl-5jhBRy3Lcrf-24">
          <mxGeometry x="-0.2" y="2" relative="1" as="geometry">
            <mxPoint as="offset" />
          </mxGeometry>
        </mxCell>
        <mxCell id="wZ6RQqIl-5jhBRy3Lcrf-8" value="&lt;b&gt;&lt;font style=&quot;font-size: 17px;&quot;&gt;lua&lt;/font&gt;&lt;/b&gt;" style="rounded=0;whiteSpace=wrap;html=1;" vertex="1" parent="1">
          <mxGeometry x="350" y="280" width="60" height="40" as="geometry" />
        </mxCell>
        <mxCell id="wZ6RQqIl-5jhBRy3Lcrf-26" style="edgeStyle=orthogonalEdgeStyle;rounded=0;orthogonalLoop=1;jettySize=auto;html=1;entryX=0.9;entryY=1;entryDx=0;entryDy=0;entryPerimeter=0;" edge="1" parent="1" source="wZ6RQqIl-5jhBRy3Lcrf-11" target="wZ6RQqIl-5jhBRy3Lcrf-8">
          <mxGeometry relative="1" as="geometry">
            <Array as="points">
              <mxPoint x="404" y="390" />
              <mxPoint x="404" y="390" />
            </Array>
          </mxGeometry>
        </mxCell>
        <mxCell id="wZ6RQqIl-5jhBRy3Lcrf-11" value="" style="shape=cylinder3;whiteSpace=wrap;html=1;boundedLbl=1;backgroundOutline=1;size=15;" vertex="1" parent="1">
          <mxGeometry x="400" y="410" width="60" height="80" as="geometry" />
        </mxCell>
        <mxCell id="wZ6RQqIl-5jhBRy3Lcrf-12" value="redis" style="text;html=1;align=center;verticalAlign=middle;resizable=0;points=[];autosize=1;strokeColor=none;fillColor=none;" vertex="1" parent="1">
          <mxGeometry x="405" y="490" width="50" height="30" as="geometry" />
        </mxCell>
        <mxCell id="wZ6RQqIl-5jhBRy3Lcrf-14" value="服务端" style="shape=cube;whiteSpace=wrap;html=1;boundedLbl=1;backgroundOutline=1;darkOpacity=0.05;darkOpacity2=0.1;" vertex="1" parent="1">
          <mxGeometry x="690" y="330" width="120" height="80" as="geometry" />
        </mxCell>
        <mxCell id="wZ6RQqIl-5jhBRy3Lcrf-28" style="edgeStyle=orthogonalEdgeStyle;rounded=0;orthogonalLoop=1;jettySize=auto;html=1;entryX=1;entryY=0.5;entryDx=0;entryDy=0;entryPerimeter=0;" edge="1" parent="1" source="wZ6RQqIl-5jhBRy3Lcrf-17" target="wZ6RQqIl-5jhBRy3Lcrf-11">
          <mxGeometry relative="1" as="geometry" />
        </mxCell>
        <mxCell id="wZ6RQqIl-5jhBRy3Lcrf-29" value="增删黑名单" style="edgeLabel;html=1;align=center;verticalAlign=middle;resizable=0;points=[];" vertex="1" connectable="0" parent="wZ6RQqIl-5jhBRy3Lcrf-28">
          <mxGeometry x="0.0889" y="2" relative="1" as="geometry">
            <mxPoint as="offset" />
          </mxGeometry>
        </mxCell>
        <mxCell id="wZ6RQqIl-5jhBRy3Lcrf-17" value="" style="shape=actor;whiteSpace=wrap;html=1;" vertex="1" parent="1">
          <mxGeometry x="730" y="420" width="40" height="60" as="geometry" />
        </mxCell>
        <mxCell id="wZ6RQqIl-5jhBRy3Lcrf-18" value="管理员" style="text;html=1;align=center;verticalAlign=middle;resizable=0;points=[];autosize=1;strokeColor=none;fillColor=none;" vertex="1" parent="1">
          <mxGeometry x="720" y="475" width="60" height="30" as="geometry" />
        </mxCell>
      </root>
    </mxGraphModel>
  </diagram>
</mxfile>
